<svg height="24px" version="1.1" viewBox="0 0 24 24" width="24px" xmlns="http://www.w3.org/2000/svg" xmlns:xlink="http://www.w3.org/1999/xlink"><title></title><desc></desc><defs></defs><g fill="none" fill-rule="evenodd" id="miu" stroke="none" stroke-width="1"><g id="Artboard-1" transform="translate(-755.000000, -623.000000)"><g id="slice" transform="translate(215.000000, 119.000000)"></g><path d="M768.634903,630.300776 C769.517647,629.93559 770.485291,629.734079 771.5,629.734079 C775.642136,629.734079 779,633.091944 779,637.234079 C779,641.376215 775.642136,644.734079 771.5,644.734079 C768.762949,644.734079 766.368338,643.267923 765.058698,641.078144 L774.712109,641.078144 C774.791763,641.078144 774.823159,641.019852 774.781646,640.947945 L768.634903,630.300776 L768.634903,630.300776 Z M764.067896,624.439229 L772.983492,639.887215 C773.020854,639.951951 772.992598,640.00443 772.920909,640.00443 L755.079584,640.00443 C755.007658,640.00443 754.978623,639.953711 755.017001,639.887215 L763.932597,624.439229 C763.969959,624.374493 764.029518,624.372733 764.067896,624.439229 Z" fill="#000000" id="editor-shape-design-triangle-circle-glyph"></path></g></g></svg>